<svg width="534" height="506" viewBox="0 0 534 506" fill="none" xmlns="http://www.w3.org/2000/svg">
<path d="M131.944 295.517L131.375 294.922L134.942 291.52L135.511 292.115L131.944 295.517ZM139.068 288.689L138.489 288.104C139.65 286.963 140.81 285.786 141.948 284.603L142.54 285.172C141.399 286.358 140.232 287.542 139.068 288.689ZM145.916 281.562L145.308 281.01C146.399 279.813 147.497 278.574 148.572 277.328L149.193 277.867C148.112 279.119 147.01 280.362 145.916 281.565V281.562ZM152.376 274.083L151.741 273.56C152.767 272.311 153.802 271.019 154.815 269.721L155.462 270.227C154.443 271.532 153.405 272.827 152.376 274.083ZM158.457 266.295L157.8 265.805C158.763 264.51 159.739 263.169 160.693 261.824L161.363 262.301C160.403 263.652 159.427 264.997 158.461 266.298L158.457 266.295ZM164.177 258.241L163.497 257.781C164.417 256.423 165.325 255.055 166.216 253.678L166.906 254.125C166.012 255.506 165.101 256.88 164.177 258.244V258.241ZM209.205 252.544C207.69 252.544 206.158 252.251 204.777 251.699L205.083 250.936C206.368 251.449 207.792 251.722 209.205 251.722C209.409 251.702 209.56 251.719 209.738 251.709L209.777 252.531C209.587 252.54 209.36 252.531 209.205 252.544ZM214.662 251.14L214.252 250.43C215.606 249.648 216.737 248.504 217.529 247.12L218.242 247.527C217.381 249.039 216.142 250.289 214.662 251.14ZM169.552 249.953L168.855 249.519C169.72 248.125 170.571 246.722 171.41 245.311L172.117 245.732C171.275 247.149 170.42 248.556 169.552 249.953ZM200.612 248.809C199.507 247.619 198.597 246.186 197.906 244.545L198.663 244.227C199.313 245.778 200.172 247.129 201.214 248.25L200.612 248.809ZM219.603 242.629L218.782 242.612V242.392C218.782 241.159 218.532 239.953 218.058 238.901C217.933 238.625 217.799 238.359 217.651 238.099L218.367 237.694C218.528 237.977 218.676 238.266 218.808 238.562C219.331 239.72 219.607 241.044 219.607 242.392V242.629H219.603ZM174.924 241.768L174.293 241.238C175.358 239.966 176.538 238.769 177.794 237.681L178.333 238.303C177.11 239.361 175.963 240.528 174.924 241.768ZM196.634 239.68C196.542 238.901 196.493 238.102 196.493 237.303C196.493 236.432 196.549 235.544 196.661 234.663L197.476 234.765C197.367 235.614 197.315 236.468 197.315 237.303C197.315 238.069 197.361 238.835 197.45 239.581L196.634 239.68ZM182.252 235.426L181.818 234.726C183.212 233.861 184.701 233.089 186.243 232.425L186.568 233.181C185.062 233.828 183.613 234.585 182.252 235.426ZM214.488 234.578C213.292 233.667 211.878 232.882 210.29 232.241L210.596 231.478C212.256 232.145 213.732 232.97 214.985 233.924L214.488 234.578ZM191.167 231.577L190.95 230.784C192.555 230.347 194.202 230.022 195.842 229.818L195.944 230.633C194.343 230.834 192.735 231.149 191.167 231.577ZM205.635 230.896C204.077 230.6 202.453 230.429 200.803 230.39L200.822 229.568C202.515 229.611 204.185 229.785 205.786 230.091L205.632 230.899L205.635 230.896ZM198.61 230.064L197.837 229.788C198.4 228.23 199.129 226.711 200.007 225.275L200.707 225.705C199.856 227.092 199.152 228.559 198.61 230.068V230.064ZM203.633 221.846L203.032 221.287C203.272 221.03 203.515 220.777 203.768 220.528C204.685 219.617 205.698 218.756 206.776 217.97L207.262 218.634C206.217 219.4 205.237 220.232 204.347 221.116C204.103 221.356 203.867 221.603 203.633 221.849V221.846ZM211.411 216.116L211.046 215.379C212.532 214.643 214.094 214.022 215.685 213.535L215.925 214.321C214.373 214.794 212.854 215.399 211.411 216.116ZM220.682 213.098L220.478 212.302C222.085 211.891 223.683 211.461 225.228 211.02L225.452 211.809C223.9 212.25 222.296 212.684 220.682 213.095V213.098ZM230.189 210.396L229.942 209.61C231.527 209.11 233.098 208.591 234.611 208.062L234.883 208.837C233.365 209.367 231.783 209.893 230.192 210.392L230.189 210.396ZM239.522 207.131L239.226 206.365C240.765 205.767 242.297 205.142 243.776 204.505L244.101 205.257C242.612 205.898 241.07 206.53 239.525 207.131H239.522ZM248.602 203.209L248.247 202.47L252.682 200.316L253.04 201.056L248.602 203.213V203.209ZM257.475 198.9L257.116 198.16L261.551 196.003L261.909 196.743L257.475 198.9ZM266.344 194.586L265.986 193.847L270.421 191.69L270.779 192.43L266.344 194.586ZM275.214 190.273L274.855 189.534L279.29 187.377L279.648 188.117L275.214 190.273ZM284.083 185.96L283.725 185.221L288.16 183.064L288.518 183.804L284.083 185.96Z" fill="#094D9A"/>
<path d="M268.934 33.1374C268.934 33.3084 268.934 33.4694 268.954 33.6404H377.035C376.756 24.7315 368.997 17.5879 359.487 17.5879C356.436 17.5879 353.576 18.321 351.077 19.6031C351.209 12.6699 347.875 6.02928 341.738 2.46571C332.526 -2.87308 320.478 0.749669 314.837 10.5626C313.14 13.5213 312.207 16.7036 311.996 19.8628C307.503 17.8048 301.934 16.5819 295.891 16.5819C281.003 16.5819 268.931 23.9951 268.931 33.1374H268.934Z" fill="#DB4200" fill-opacity="0.2"/>
<path d="M89.1222 285.694H0L0.00986229 285.375C0.246557 277.834 6.69649 271.926 14.6915 271.926C16.973 271.926 19.2347 272.433 21.2697 273.389C21.3288 267.617 24.2875 262.36 29.0773 259.582C32.6442 257.514 36.8619 256.982 40.9515 258.08C45.406 259.273 49.1635 262.202 51.5337 266.328C52.8487 268.623 53.6311 271.078 53.8645 273.639C57.6615 271.979 62.116 271.105 66.7841 271.105C79.1317 271.105 89.1748 277.328 89.1748 284.974C89.1748 285.125 89.1748 285.27 89.1551 285.421L89.1222 285.694ZM0.641049 285.076H88.5567V284.974C88.5567 277.666 78.7898 271.723 66.7808 271.723C62.0371 271.723 57.5201 272.643 53.7166 274.382L53.3089 274.569L53.2794 274.126C53.1051 271.499 52.3359 268.981 50.9946 266.64C48.7065 262.659 45.0805 259.832 40.7871 258.681C36.8554 257.626 32.8052 258.139 29.383 260.121C24.6491 262.866 21.7759 268.143 21.8844 273.886L21.8943 274.402L21.434 274.165C19.3728 273.107 17.042 272.548 14.6882 272.548C7.14029 272.548 1.03225 278.028 0.634474 285.079L0.641049 285.076Z" fill="#094D9A"/>
<mask id="mask0_172_1347" style="mask-type:luminance" maskUnits="userSpaceOnUse" x="263" y="148" width="250" height="148">
<path d="M263.396 276.815C263.396 287.318 271.91 295.833 282.413 295.833H493.654C504.157 295.833 512.671 287.318 512.671 276.815V148.29H263.396V276.815Z" fill="white"/>
</mask>
<g mask="url(#mask0_172_1347)">
<path d="M263.396 276.815C263.396 287.318 271.91 295.833 282.413 295.833H493.654C504.157 295.833 512.671 287.318 512.671 276.815V148.29H263.396V276.815Z" fill="white"/>
<path d="M250.351 181.062C253.264 171.719 262.485 164.549 272.554 163.79C282.627 163.03 292.907 168.731 297.315 177.521C302.674 177.472 307.957 180.444 310.56 184.974C313.164 189.504 312.98 195.402 310.1 199.764C316.484 200.869 322.211 205.07 325.035 210.711C327.859 216.353 327.704 223.296 324.634 228.805C331.659 225.235 340.64 225.561 347.38 229.627C354.119 233.697 358.366 241.357 358.13 249.03C362.505 242.165 370.895 237.888 379.235 238.27C387.575 238.651 395.527 243.671 399.236 250.903C403.151 239.187 413.592 229.732 425.943 226.708C438.297 223.687 452.153 227.198 461.398 235.692C475.3 237.869 485.435 252.965 481.812 266.104C489.324 272.321 493.161 282.423 491.593 291.848C490.021 301.27 483.098 309.686 473.952 313.286L234.729 313.131L214.337 221.862L250.348 181.059L250.351 181.062Z" fill="#DB4200" fill-opacity="0.4"/>
<g opacity="0.8">
<path d="M246.557 211.375C249.381 202.029 258.293 194.853 268.024 194.084C277.755 193.318 287.683 199.008 291.934 207.795C297.111 207.743 302.213 210.708 304.725 215.238C307.237 219.768 307.056 225.666 304.268 230.028C310.435 231.13 315.965 235.324 318.69 240.966C321.415 246.607 321.261 253.547 318.289 259.06C325.077 255.483 333.756 255.802 340.265 259.865C346.775 263.928 350.871 271.588 350.637 279.257C354.868 272.39 362.978 268.107 371.036 268.481C379.093 268.856 386.769 273.869 390.349 281.098C394.14 269.382 404.235 259.914 416.172 256.883C428.109 253.852 441.495 257.353 450.421 265.841C463.85 268.005 473.63 283.094 470.119 296.237C477.371 302.447 481.073 312.546 479.547 321.971C478.022 331.396 471.325 339.815 462.489 343.422L231.366 343.458L211.737 252.205L246.561 211.375H246.557Z" fill="white"/>
</g>
<path opacity="0.7" d="M430.305 152.405C361.068 217.516 311.971 235.071 250.118 241.35L246.008 307.098L310.935 329.289C367.643 327.645 422.093 245.551 455.727 175.125L430.302 152.409" fill="#FFF2E0"/>
<path d="M440.055 153.25C428.799 166.567 411.823 179.306 391.799 196.513L419.121 185.378C415.771 190.931 410.893 198.699 408.158 202.032C414.453 199.126 424.588 192.732 427.945 189.339C427.945 194.07 422.244 201.983 419.759 206.306C434.332 193.833 447.587 178.609 451.87 165.233L440.059 153.25" fill="#FFA121"/>
<path opacity="0.4" d="M443.248 153.924C436.591 162.751 426.623 171.259 414.844 182.719L430.788 175.155C428.79 178.82 425.883 183.952 424.266 186.161C427.945 184.195 433.882 179.908 435.861 177.656C435.811 180.75 432.429 185.987 430.943 188.84C439.513 180.533 447.35 170.437 449.97 161.643L443.251 153.928" fill="white"/>
<path d="M339.861 199.159C339.95 201.217 339.861 204.692 337.803 205.882C334.371 207.871 331.669 203.045 330.41 200.619C328.907 197.723 329.292 194.129 332.691 192.837C337.182 191.131 339.696 195.316 339.861 199.159Z" fill="#DB4200" fill-opacity="0.4"/>
<path d="M502.628 261.657C502.717 263.715 502.628 267.189 500.571 268.38C497.138 270.368 494.436 265.542 493.177 263.116C491.675 260.22 492.059 256.627 495.459 255.335C499.949 253.629 502.464 257.814 502.628 261.657Z" fill="#DB4200" fill-opacity="0.4"/>
<path d="M321.619 178.751C323.208 178.751 324.496 177.463 324.496 175.875C324.496 174.286 323.208 172.998 321.619 172.998C320.031 172.998 318.743 174.286 318.743 175.875C318.743 177.463 320.031 178.751 321.619 178.751Z" fill="#DB4200" fill-opacity="0.4"/>
<path d="M469.858 231.686C472.024 230.61 472.907 227.982 471.83 225.816C470.754 223.65 468.126 222.768 465.96 223.844C463.795 224.92 462.912 227.549 463.988 229.714C465.065 231.88 467.693 232.763 469.858 231.686Z" fill="#DB4200" fill-opacity="0.4"/>
</g>
<path d="M493.654 296.243H282.417C271.703 296.243 262.988 287.528 262.988 276.815V147.878H513.085V276.815C513.085 287.528 504.371 296.243 493.657 296.243H493.654ZM263.806 148.7V276.815C263.806 287.075 272.153 295.422 282.413 295.422H493.654C503.914 295.422 512.26 287.075 512.26 276.815V148.7H263.806Z" fill="#094D9A"/>
<path d="M493.653 98.498H282.416C271.913 98.498 263.398 107.009 263.398 117.516V148.293H512.674V117.516C512.674 107.009 504.16 98.498 493.657 98.498H493.653Z" fill="white"/>
<path d="M513.082 148.701H262.984V117.513C262.984 106.799 271.699 98.084 282.413 98.084H493.653C504.367 98.084 513.082 106.799 513.082 117.513V148.701ZM263.806 147.879H512.26V117.513C512.26 107.253 503.913 98.9058 493.653 98.9058H282.416C272.156 98.9058 263.81 107.253 263.81 117.513V147.879H263.806Z" fill="#094D9A"/>
<path d="M298.715 125.457C299.86 119.812 296.213 114.309 290.569 113.163C284.925 112.018 279.421 115.665 278.276 121.309C277.131 126.953 280.778 132.457 286.422 133.602C292.066 134.748 297.569 131.101 298.715 125.457Z" fill="#DB4200" fill-opacity="0.4"/>
<path d="M326.594 130.768C330.666 126.695 330.666 120.093 326.594 116.021C322.522 111.948 315.919 111.948 311.847 116.021C307.775 120.093 307.775 126.695 311.847 130.768C315.919 134.84 322.522 134.84 326.594 130.768Z" fill="white"/>
<path d="M319.219 134.232C313.242 134.232 308.38 129.37 308.38 123.394C308.38 117.417 313.242 112.555 319.219 112.555C325.196 112.555 330.058 117.417 330.058 123.394C330.058 129.37 325.196 134.232 319.219 134.232ZM319.219 113.38C313.696 113.38 309.202 117.874 309.202 123.397C309.202 128.92 313.696 133.414 319.219 133.414C324.742 133.414 329.236 128.92 329.236 123.397C329.236 117.874 324.742 113.38 319.219 113.38Z" fill="#094D9A"/>
<path d="M398.591 113.443H357.074C351.578 113.443 347.123 117.898 347.123 123.394V123.397C347.123 128.893 351.578 133.348 357.074 133.348H398.591C404.087 133.348 408.542 128.893 408.542 123.397V123.394C408.542 117.898 404.087 113.443 398.591 113.443Z" fill="white"/>
<path d="M398.591 133.756H357.077C351.364 133.756 346.715 129.107 346.715 123.394C346.715 117.68 351.364 113.032 357.077 113.032H398.591C404.304 113.032 408.953 117.68 408.953 123.394C408.953 129.107 404.304 133.756 398.591 133.756ZM357.077 113.85C351.817 113.85 347.537 118.131 347.537 123.39C347.537 128.65 351.817 132.931 357.077 132.931H398.591C403.851 132.931 408.131 128.65 408.131 123.39C408.131 118.131 403.851 113.85 398.591 113.85H357.077Z" fill="#094D9A"/>
<path d="M483.315 75.8115C466.667 90.3847 437.955 80.3383 429.033 91.9758L454.527 112.164L483.315 75.8115Z" fill="#DB4200"/>
<path d="M429.033 91.979C427.757 95.3749 428.447 99.1949 430.834 101.927L448.899 122.618L454.527 112.167L429.033 91.979Z" fill="#E98E66"/>
<path d="M521.048 105.691C510.679 125.235 527.037 150.88 517.754 162.231L492.26 142.043L521.048 105.691Z" fill="#DB4200"/>
<path d="M517.754 162.232C514.742 164.25 510.863 164.454 507.658 162.758L483.377 149.917L492.26 142.043L517.754 162.232Z" fill="#E98E66"/>
<path d="M534 50.7646L511.3 59.0983L531.091 74.7695L534 50.7646Z" fill="#021327"/>
<path d="M531.091 74.7692C527.918 110.684 501.382 144.2 469.149 162.813L439.776 139.578C452.1 100.802 475.053 73.0531 511.297 59.0947L531.087 74.7659L531.091 74.7692Z" fill="#E26833"/>
<path d="M439.779 139.578L427.037 148.401L463.478 177.258L469.149 162.813L439.779 139.578Z" fill="#DB4200"/>
<path d="M504.39 103.73C511.867 102.841 517.207 96.0595 516.318 88.5828C515.43 81.1062 508.648 75.7658 501.171 76.6547C493.695 77.5436 488.354 84.3252 489.243 91.8018C490.132 99.2784 496.914 104.619 504.39 103.73Z" fill="white"/>
<path d="M503.812 99.8491L503.726 99.0305C504.509 98.9483 505.275 98.7609 506.011 98.4749L506.307 99.2409C505.508 99.5499 504.667 99.7537 503.812 99.8458V99.8491ZM501.244 99.7833C500.393 99.6485 499.568 99.402 498.785 99.0469L499.124 98.2974C499.841 98.6196 500.597 98.8464 501.373 98.9713L501.244 99.7833ZM508.552 98.0048L508.066 97.344C508.694 96.8772 509.262 96.3282 509.752 95.7102L510.397 96.2197C509.861 96.8969 509.243 97.4953 508.552 98.0048ZM496.606 97.6892C495.938 97.1402 495.35 96.509 494.854 95.8121L495.524 95.3354C495.978 95.9732 496.517 96.5518 497.129 97.0547L496.606 97.6892ZM511.399 94.6714L510.669 94.2933C511.031 93.5964 511.301 92.8534 511.468 92.0841L512.27 92.2584C512.086 93.1 511.794 93.912 511.396 94.6714H511.399ZM493.657 93.5405C493.361 92.7351 493.174 91.8935 493.098 91.0355L493.917 90.9631C493.986 91.7488 494.157 92.5214 494.43 93.2578L493.657 93.5405ZM511.662 89.7402C511.623 88.9512 511.478 88.1754 511.235 87.4292L512.017 87.176C512.284 87.9913 512.438 88.8395 512.484 89.6975L511.662 89.7402ZM494.022 88.6159L493.213 88.4713C493.364 87.6231 493.627 86.8012 493.996 86.0254L494.739 86.3772C494.403 87.0873 494.16 87.8401 494.022 88.6126V88.6159ZM510.219 85.312C509.788 84.6578 509.272 84.0595 508.681 83.5335L509.226 82.9188C509.871 83.4908 510.436 84.145 510.906 84.8617L510.219 85.312ZM496.014 84.408L495.39 83.8754C495.948 83.2212 496.589 82.6427 497.299 82.1594L497.763 82.8399C497.115 83.2804 496.527 83.8097 496.014 84.4113V84.408ZM506.734 82.2186C506.031 81.8668 505.281 81.6137 504.512 81.4625L504.67 80.657C505.511 80.8247 506.33 81.1008 507.099 81.4855L506.734 82.2219V82.2186ZM499.86 81.7813L499.591 81.0055C500.4 80.7261 501.248 80.5518 502.106 80.4927L502.165 81.3145C501.379 81.3704 500.603 81.5282 499.86 81.7846V81.7813Z" fill="#094D9A"/>
<path d="M463.946 139.91L463.299 139.398C462.341 138.639 460.95 138.801 460.191 139.759L434.63 172.044C433.872 173.002 434.033 174.393 434.991 175.152L435.638 175.664C436.596 176.422 437.988 176.26 438.746 175.302L464.307 143.018C465.066 142.06 464.904 140.668 463.946 139.91Z" fill="#021327"/>
<path d="M480.888 457.114H475.957V456.292H480.888V457.114ZM471.026 457.114H466.095V456.292H471.026V457.114ZM461.164 457.114H456.233V456.292H461.164V457.114ZM451.302 457.114H446.37V456.292H451.302V457.114ZM441.439 457.114H436.508V456.292H441.439V457.114ZM431.577 457.114H426.646V456.292H431.577V457.114ZM421.715 457.114H416.784V456.292H421.715V457.114ZM411.852 457.114H406.921V456.292H411.852V457.114ZM401.99 457.114H397.059V456.292H401.99V457.114ZM392.128 457.114H387.197V456.292H392.128V457.114ZM382.262 457.114C380.559 457.097 378.889 456.814 377.295 456.265L377.561 455.49C379.073 456.006 380.658 456.279 382.272 456.292L382.266 457.114H382.262ZM481.483 457.104L481.454 456.282C483.065 456.223 484.639 455.907 486.138 455.345L486.428 456.114C484.85 456.706 483.186 457.038 481.487 457.104H481.483ZM372.85 453.885C371.503 452.856 370.335 451.627 369.382 450.23L370.063 449.766C370.967 451.091 372.074 452.258 373.35 453.234L372.85 453.889V453.885ZM490.8 453.609L490.284 452.971C491.533 451.959 492.608 450.762 493.473 449.411L494.163 449.855C493.249 451.278 492.118 452.541 490.8 453.609ZM367.245 445.664C366.847 444.266 366.647 442.817 366.647 441.347V440.673H367.469V441.347C367.469 442.738 367.659 444.115 368.034 445.437L367.245 445.66V445.664ZM496.172 445.233L495.376 445.029C495.679 443.832 495.833 442.593 495.833 441.347V440.239H496.655V441.347C496.655 442.662 496.494 443.967 496.172 445.23V445.233ZM367.469 435.745H366.647V430.814H367.469V435.745ZM496.655 435.308H495.833V430.377H496.655V435.308ZM367.469 425.883H366.647V420.952H367.469V425.883ZM496.655 425.446H495.833V420.515H496.655V425.446ZM367.469 416.021H366.647V411.09H367.469V416.021ZM496.655 415.584H495.833V410.652H496.655V415.584ZM367.469 406.159H366.647V401.227H367.469V406.159ZM496.655 405.721H495.833V400.79H496.655V405.721ZM367.469 396.296H366.647V391.365H367.469V396.296ZM496.655 395.859H495.833V390.928H496.655V395.859ZM367.469 386.434H366.647V383.15C366.647 382.591 366.677 382.022 366.736 381.463L367.554 381.549C367.498 382.078 367.469 382.617 367.469 383.147V386.431V386.434ZM496.655 385.997H495.833V383.147C495.833 382.473 495.787 381.792 495.698 381.125L496.514 381.016C496.609 381.716 496.655 382.433 496.655 383.147V385.997ZM368.817 376.94L368.067 376.598C368.771 375.059 369.714 373.649 370.871 372.406L371.473 372.965C370.378 374.142 369.481 375.48 368.817 376.937V376.94ZM494.308 376.558C493.601 375.122 492.667 373.81 491.54 372.663L492.125 372.088C493.315 373.297 494.298 374.681 495.044 376.197L494.308 376.558ZM375.244 370.033L374.849 369.313C376.335 368.498 377.936 367.932 379.603 367.633L379.747 368.442C378.169 368.725 376.654 369.26 375.244 370.033ZM487.69 369.836C486.26 369.106 484.731 368.613 483.144 368.373L483.265 367.561C484.942 367.814 486.556 368.333 488.065 369.103L487.69 369.836ZM478.281 368.205H473.35V367.383H478.281V368.205ZM468.419 368.205H463.488V367.383H468.419V368.205ZM458.557 368.205H453.626V367.383H458.557V368.205ZM448.695 368.205H443.763V367.383H448.695V368.205ZM438.832 368.205H433.901V367.383H438.832V368.205ZM428.97 368.205H424.039V367.383H428.97V368.205ZM419.108 368.205H414.177V367.383H419.108V368.205ZM409.245 368.205H404.314V367.383H409.245V368.205ZM399.383 368.205H394.452V367.383H399.383V368.205ZM389.521 368.205H384.59V367.383H389.521V368.205Z" fill="#094D9A"/>
<path d="M471.894 351.515H366.976C360.274 351.515 354.842 356.948 354.842 363.649V430.736C354.842 437.437 360.274 442.869 366.976 442.869H471.894C478.595 442.869 484.028 437.437 484.028 430.736V363.649C484.028 356.948 478.595 351.515 471.894 351.515Z" fill="#094D9A"/>
<path d="M391.293 404.876H377.305V433.283H391.293V404.876Z" fill="white"/>
<path d="M414.719 405.791H400.731V433.287H414.719V405.791Z" fill="white"/>
<path d="M438.142 391.428H424.154V433.287H438.142V391.428Z" fill="white"/>
<path d="M461.568 379.146H447.58V433.283H461.568V379.146Z" fill="white"/>
<path d="M456.963 364.382H381.907V367.663H456.963V364.382Z" fill="white"/>
<path d="M153.381 262.338C151.004 254.093 145.968 246.864 139.061 241.771L136.287 239.727L138.64 288.459L156.853 274.369L153.381 262.338Z" fill="#FFA121"/>
<path d="M211.907 321.239L207.86 313.316C206.835 311.31 205.017 309.825 202.844 309.223L190.94 305.926L160.314 286.372L156.852 274.37L138.64 288.46L138.805 291.882C139.137 298.749 143.348 304.824 149.66 307.55L179.398 320.377L193.534 320.693C198.087 322.264 199.658 326.189 202.485 324.776C203.537 324.25 199.421 317.471 199.421 317.471L206.253 325.009L211.907 321.239Z" fill="#FFBC96"/>
<path d="M159.948 286.095L155.945 290.809L156.664 291.419L160.667 286.706L159.948 286.095Z" fill="#D28572"/>
<path d="M158.641 340.979L180.923 339.013C195.427 337.731 208.045 349.444 208.751 364.846L213.788 474.584L183.05 475.54L158.641 340.979Z" fill="#042347"/>
<path d="M185.522 474.449L186.466 504.759H232.01L209.55 486.07L208.137 471.464L185.522 474.449Z" fill="#021327"/>
<path d="M208.97 485.337L199.389 492.718L200.538 494.21L210.119 486.829L208.97 485.337Z" fill="white"/>
<path d="M175.157 474.449L176.097 504.759H221.645L199.185 486.07L197.771 471.464L175.157 474.449Z" fill="#6891C0"/>
<path d="M198.605 485.334L189.024 492.715L190.174 494.208L199.755 486.827L198.605 485.334Z" fill="white"/>
<path d="M209.08 477.431H171.387L144.522 394.768L140.761 383.196L87.0476 382.96C83.7306 382.914 80.5549 381.375 77.8593 379.107C72.149 374.291 69.519 366.723 70.5546 359.326L75.2655 325.712L155.065 336.088C170.2 338.057 182.419 349.385 185.529 364.32L209.077 477.431H209.08Z" fill="#094D9A"/>
<path d="M151.833 383.196L144.522 394.771L140.761 383.196H151.833Z" fill="#1B1B43"/>
<path d="M141.967 319.628C141.579 321.183 141.175 322.737 140.761 324.302L137.934 335.844L100.71 334.299L73.911 333.188C66.8069 332.896 61.662 326.301 63.1118 319.335L75.6073 259.205C77.2083 248.981 85.5123 241.111 95.8118 240.045L126.391 236.899L136.287 239.727C145.945 244.911 145.955 254.303 146.415 260.457C148.44 287.388 145.945 303.7 141.967 319.628Z" fill="#FFA121"/>
<path opacity="0.3" d="M116.73 317.705C116.342 319.26 141.175 322.738 140.761 324.302L137.934 335.845L100.71 334.3C87.7052 324.49 82.8332 303.145 78.0928 276.401L116.73 317.705Z" fill="#1B1B43"/>
<path d="M109.333 254.293C110.963 256.042 112.821 257.564 114.895 258.702C116.963 259.839 119.212 260.671 121.542 260.947C123.847 261.25 126.283 261.052 128.305 259.954C130.372 258.925 131.691 256.752 131.937 254.399L132.305 254.422C132.292 255.651 131.983 256.9 131.369 258.008C130.75 259.116 129.807 260.033 128.709 260.668C126.493 261.95 123.867 262.18 121.421 261.871C118.962 261.529 116.595 260.671 114.494 259.389C112.38 258.13 110.533 256.453 109.047 254.527L109.33 254.29L109.333 254.293Z" fill="#1B1B43"/>
<path d="M147.237 291.03L146.533 290.981C147.211 281.5 146.523 269.849 144.495 256.348L145.195 256.243C147.234 269.793 147.921 281.497 147.24 291.03H147.237Z" fill="#1B1B43"/>
<path d="M210.493 324.46H175.469V331.37H210.493V324.46Z" fill="#1B1B43"/>
<path d="M271.117 331.37H200.756L233.111 269.488H303.472L271.117 331.37Z" fill="#094D9A"/>
<path d="M117.085 187.427C108.84 179.3 93.2905 182.716 93.5272 196.378C76.564 200.856 75.6238 219.466 82.4551 229.006L88.3462 229.476L89.6414 222.527L93.0571 229.595L109.547 230.653L117.085 187.423V187.427Z" fill="#021327"/>
<path d="M130.866 217.816V243.777C130.866 244.013 130.856 244.237 130.836 244.464C130.432 249.806 125.257 253.586 119.971 252.219C112.177 250.204 106.759 243.152 106.825 235.104L106.956 217.812H130.862L130.866 217.816Z" fill="#FFBC96"/>
<path d="M130.866 229.039V243.777C130.866 244.013 130.856 244.237 130.836 244.464C123.89 243.323 115.862 235.285 113.903 226.531L130.866 229.036V229.039Z" fill="#1B1B43"/>
<path d="M144.916 219.739C144.558 221.804 144.078 223.914 143.437 225.919C141.363 232.507 137.641 237.971 130.978 237.021C115.316 234.779 106.598 218.644 106.598 218.644L117.312 206.395L124.501 196.727L146.054 206.037C146.054 206.037 146.166 212.625 144.913 219.739H144.916Z" fill="#FFBC96"/>
<path d="M111.233 214.519C118.107 214.298 123.423 210.797 125.682 200.856C125.682 200.856 141.701 214.676 149.555 207.296C156.13 201.116 144.976 186.894 126.51 185.198C119.784 184.58 113.078 186.681 107.808 190.905C98.8596 198.075 98.0016 214.755 106.368 220.528L111.237 214.522L111.233 214.519Z" fill="#021327"/>
<path d="M103.186 197.085C102.735 195.461 103.07 193.663 103.797 192.115C104.533 190.556 105.668 189.195 107.022 188.143C108.376 187.088 109.967 186.335 111.638 185.984C113.304 185.642 115.073 185.694 116.611 186.365C115.02 186.878 113.646 187.42 112.351 188.088C111.059 188.748 109.869 189.514 108.751 190.376C107.637 191.24 106.601 192.2 105.671 193.288C104.734 194.383 103.912 195.583 103.182 197.082L103.186 197.085Z" fill="#B8B9C1"/>
<path d="M111.591 221.617C114.339 220.517 115.488 216.933 114.159 213.613C112.829 210.292 109.524 208.492 106.777 209.592C104.029 210.692 102.88 214.276 104.209 217.596C105.539 220.917 108.844 222.717 111.591 221.617Z" fill="#FFBC96"/>
<path d="M109.172 219.177C109.29 218.03 109.297 216.941 108.965 215.945C108.639 214.943 108.005 214.068 107.271 213.171L107.502 212.885C108.567 213.44 109.471 214.433 109.855 215.659C110.243 216.886 110.076 218.22 109.523 219.285L109.172 219.18V219.177Z" fill="#1B1B43"/>
<path d="M134.913 215.702C134.913 216.675 134.199 217.464 133.322 217.464C132.444 217.464 131.73 216.675 131.73 215.702C131.73 214.729 132.444 213.94 133.322 213.94C134.199 213.94 134.913 214.729 134.913 215.702Z" fill="#1B1B43"/>
<path d="M143.269 217.089C143.164 217.947 142.448 218.569 141.672 218.473C140.896 218.378 140.35 217.602 140.455 216.744C140.561 215.886 141.277 215.265 142.053 215.36C142.829 215.456 143.375 216.231 143.269 217.089Z" fill="#1B1B43"/>
<path d="M134.834 211.28C134.896 212.102 133.581 212.181 131.642 212.24C129.702 212.299 128.361 212.898 128.348 212.378C128.335 211.859 129.768 210.521 131.681 210.199C133.654 209.867 134.762 210.304 134.837 211.284L134.834 211.28Z" fill="#1B1B43"/>
<path d="M141.031 212.072C140.889 212.884 141.856 213.092 143.289 213.345C144.723 213.595 145.65 214.324 145.722 213.812C145.794 213.299 144.884 211.826 143.5 211.313C142.073 210.784 141.202 211.109 141.031 212.076V212.072Z" fill="#1B1B43"/>
<path d="M138.723 218.552C139.091 219.002 139.499 219.39 139.919 219.791L140.554 220.383C140.774 220.584 141.011 220.801 141.225 221.133C141.33 221.3 141.412 221.517 141.425 221.761C141.445 222.007 141.366 222.244 141.267 222.428C141.05 222.793 140.791 223.007 140.508 223.194C139.946 223.565 139.334 223.717 138.746 223.832L138.608 223.49C139.114 223.161 139.62 222.869 140.011 222.53C140.199 222.362 140.383 222.158 140.449 222.004C140.521 221.846 140.501 221.794 140.413 221.609C140.202 221.268 139.67 220.807 139.321 220.331C138.94 219.857 138.598 219.318 138.394 218.726L138.716 218.549L138.723 218.552Z" fill="#1B1B43"/>
<path d="M130.748 224.354C131.711 225.452 132.714 226.468 133.92 227.116C135.117 227.78 136.484 227.967 137.927 227.81L138.026 228.165C137.329 228.474 136.543 228.641 135.748 228.595C134.952 228.562 134.167 228.322 133.476 227.938C132.086 227.165 131.06 225.916 130.442 224.552L130.751 224.354H130.748Z" fill="#1B1B43"/>
<path opacity="0.2" d="M125.097 223.355C127.244 223.355 128.986 221.614 128.986 219.466C128.986 217.318 127.244 215.577 125.097 215.577C122.949 215.577 121.208 217.318 121.208 219.466C121.208 221.614 122.949 223.355 125.097 223.355Z" fill="#FE5B52"/>
<path opacity="0.2" d="M144.916 219.739C144.558 221.804 144.078 223.914 143.437 225.919C142.835 225.232 142.467 224.335 142.467 223.345C142.467 221.705 143.486 220.311 144.916 219.736V219.739Z" fill="#FE5B52"/>
<path d="M100.555 265.72L78.0957 276.398L85.1374 293.098L108.689 282.236L100.555 265.72Z" fill="#FFA121"/>
<path d="M183.747 323.628C183.126 323.316 182.734 323.109 182.734 323.109L182.958 322.665C182.958 322.665 183.372 322.866 183.974 323.188L183.744 323.628H183.747Z" fill="#C5C5FF"/>
<path d="M193.06 325.949C192.334 327.383 186.775 324.848 184.184 323.576C186.193 324.687 189.651 326.873 188.113 328.07C186.877 329.023 184.145 326.995 175.193 323.283C176.551 323.924 184.549 327.731 182.534 329.174C180.338 330.739 170.916 327.291 170.916 327.291L162.747 331.683H153.325L119.419 331.899C117.288 331.909 115.178 331.637 113.133 331.107C109.109 330.082 105.322 328.083 102.107 325.397C100.082 323.701 98.3362 321.712 96.8766 319.526C95.7852 317.885 94.8516 316.123 94.079 314.285L85.1372 293.101L108.685 282.236L120.973 307.181L161.494 315.982L172.803 313.155C175.236 312.543 178.674 313.569 180.815 314.88C186.035 318.076 193.744 324.585 193.063 325.953L193.06 325.949Z" fill="#FFBC96"/>
<path opacity="0.2" d="M113.744 327.6C113.744 328.836 113.527 330.012 113.133 331.104C109.109 330.078 105.322 328.079 102.107 325.394C100.082 323.697 98.3361 321.708 96.8765 319.522C98.6583 318.089 100.92 317.231 103.379 317.231C109.109 317.231 113.744 321.866 113.744 327.596V327.6Z" fill="#FE5B52"/>
<path d="M161.435 315.804C164.246 314.871 167.093 314.065 169.999 313.457C171.452 313.158 172.922 312.915 174.421 312.826C175.17 312.783 175.93 312.8 176.696 312.885C177.074 312.961 177.452 313.059 177.83 313.148C178.188 313.276 178.54 313.421 178.895 313.556C181.65 314.805 184.053 316.593 186.377 318.431C188.698 320.282 190.891 322.271 193.021 324.342L193.12 324.437L193.139 324.559C193.215 325.006 193.162 325.417 192.916 325.834C192.765 326.009 192.607 326.202 192.403 326.285C192.206 326.41 192.008 326.459 191.815 326.488C191.035 326.617 190.352 326.456 189.697 326.281C188.386 325.92 187.219 325.321 186.039 324.746C184.885 324.128 183.747 323.487 182.646 322.797C181.525 322.133 180.46 321.39 179.368 320.683L179.868 319.887C181.794 321.031 183.672 322.231 185.463 323.592C186.354 324.283 187.235 324.989 187.991 325.913C188.172 326.16 188.356 326.406 188.481 326.742C188.55 326.899 188.59 327.1 188.593 327.317C188.576 327.544 188.507 327.784 188.35 327.961C188.054 328.303 187.695 328.421 187.393 328.494C187.077 328.576 186.785 328.592 186.486 328.622L186.394 328.632L186.292 328.589L176.061 324.302L176.367 323.582C177.978 324.325 179.546 325.124 181.042 326.107C181.771 326.63 182.537 327.1 183.077 328.001C183.198 328.228 183.287 328.576 183.162 328.901C183.034 329.217 182.784 329.418 182.554 329.526C182.08 329.766 181.604 329.815 181.147 329.842C179.312 329.884 177.59 329.454 175.884 329.033C174.181 328.583 172.504 328.053 170.851 327.452L170.976 327.107C172.629 327.659 174.312 328.149 176.005 328.553C177.695 328.931 179.434 329.306 181.114 329.22C181.916 329.187 182.869 328.836 182.482 328.306C182.113 327.688 181.354 327.162 180.657 326.699C179.211 325.775 177.636 324.999 176.058 324.299L176.364 323.579L186.63 327.774L186.436 327.741C186.689 327.711 186.949 327.698 187.173 327.632C187.403 327.583 187.59 327.481 187.653 327.402C187.797 327.346 187.603 326.84 187.281 326.459C186.63 325.667 185.769 324.966 184.904 324.306C183.159 322.991 181.285 321.801 179.391 320.693L179.891 319.897C180.976 320.591 182.025 321.34 183.129 321.998C184.217 322.685 185.328 323.319 186.456 323.928C187.593 324.49 188.744 325.078 189.934 325.41C190.519 325.578 191.141 325.696 191.637 325.611L191.818 325.578C191.874 325.561 191.907 325.529 191.956 325.509C192.064 325.476 192.097 325.39 192.173 325.338C192.265 325.197 192.304 324.934 192.275 324.743L192.393 324.96C190.309 322.905 188.113 320.933 185.851 319.069C183.583 317.221 181.216 315.43 178.606 314.207L177.61 313.812C177.271 313.73 176.932 313.635 176.59 313.559C175.89 313.47 175.17 313.447 174.447 313.477C172.997 313.536 171.544 313.737 170.101 314.003C167.215 314.539 164.358 315.278 161.547 316.143L161.432 315.794L161.435 315.804Z" fill="#D28572"/>
<path d="M85.2817 293.42L84.9858 292.779L108.225 282.059L98.5432 259.408L99.1941 259.132L109.142 282.414L85.2817 293.42Z" fill="#1B1B43"/>
<path d="M88.6058 392.622H87.373V498.792H88.6058V392.622Z" fill="#1B1B43"/>
<path d="M117.673 382.727H58.3091C54.2748 382.727 51.0044 385.996 51.0044 390.03C51.0044 394.063 54.2748 397.333 58.3091 397.333H117.673C121.708 397.333 124.978 394.063 124.978 390.03C124.978 385.996 121.708 382.727 117.673 382.727Z" fill="#DB4200"/>
<path d="M73.9999 493.516H101.982C108.045 493.516 112.962 498.437 112.962 504.496V505.703H63.0166V504.496C63.0166 498.434 67.9379 493.516 73.9966 493.516H73.9999Z" fill="#DB4200"/>
<path d="M159.824 337.838L158.781 338.496L264.017 505.284L265.059 504.626L159.824 337.838Z" fill="#1B1B43"/>
<path d="M264.019 337.853L158.754 504.623L159.797 505.281L265.062 338.511L264.019 337.853Z" fill="#1B1B43"/>
<path d="M304.1 331.37H119.715V345.276H304.1V331.37Z" fill="#6891C0"/>
<path d="M135.173 109.672C113.926 109.672 96.6406 92.387 96.6406 71.1403C96.6406 49.8937 113.926 32.6084 135.173 32.6084C156.419 32.6084 173.705 49.8937 173.705 71.1403C173.705 92.387 156.419 109.672 135.173 109.672ZM135.173 33.427C114.38 33.427 97.4625 50.3441 97.4625 71.1371C97.4625 91.93 114.38 108.847 135.173 108.847C155.966 108.847 172.883 91.93 172.883 71.1371C172.883 50.3441 155.966 33.427 135.173 33.427Z" fill="#094D9A"/>
<path d="M161.229 97.9658C184.383 97.9658 203.153 79.1956 203.153 56.0413C203.153 32.887 184.383 14.1167 161.229 14.1167C138.074 14.1167 119.304 32.887 119.304 56.0413C119.304 79.1956 138.074 97.9658 161.229 97.9658Z" fill="#DB4200" fill-opacity="0.2"/>
<path d="M161.245 56.837L138 38.6148L138.763 37.645L161.216 55.2459L173.734 44.644L174.53 45.5874L161.245 56.837Z" fill="#042347"/>
<path d="M52.4308 146.456H31.1414C27.7159 146.456 24.938 149.233 24.938 152.659V173.948C24.938 177.374 27.7159 180.152 31.1414 180.152H46.3359L52.8811 189.192V180.129C56.0962 179.899 58.6341 177.223 58.6341 173.948V152.659C58.6341 149.233 55.8563 146.456 52.4308 146.456Z" fill="white"/>
<path d="M53.2923 190.461L46.1257 180.562H31.1417C27.4959 180.562 24.5273 177.594 24.5273 173.948V152.659C24.5273 149.013 27.4959 146.044 31.1417 146.044H52.431C56.0768 146.044 59.0453 149.013 59.0453 152.659V173.948C59.0453 177.268 56.5469 180.073 53.2923 180.5V190.461ZM31.1417 146.866C27.9463 146.866 25.3492 149.463 25.3492 152.659V173.948C25.3492 177.144 27.9463 179.741 31.1417 179.741H46.5465L52.4705 187.923V179.744L52.8518 179.718C55.8631 179.501 58.2235 176.966 58.2235 173.948V152.659C58.2235 149.463 55.6264 146.866 52.431 146.866H31.1417Z" fill="#094D9A"/>
<path d="M41.3491 174.261L32.8281 161.953L34.8532 160.549L41.1256 169.606L50.5704 152.705L52.7236 153.908L41.3491 174.261Z" fill="#094D9A"/>
<path d="M521.675 504.469H16.5815V505.702H521.675V504.469Z" fill="#1B1B43"/>
</svg>
