<svg width="44" height="44" viewBox="0 0 44 44" fill="none" xmlns="http://www.w3.org/2000/svg">
<path d="M0 22C0 9.84974 9.84974 0 22 0C34.1503 0 44 9.84974 44 22C44 34.1503 34.1503 44 22 44C9.84974 44 0 34.1503 0 22Z" fill="#094D9A"/>
<path d="M18.2551 12.9771C17.9465 12.2388 17.1418 11.8481 16.3761 12.0552L16.1613 12.1138C13.6377 12.8013 11.4813 15.2467 12.1103 18.2235C13.5596 25.0598 18.9388 30.439 25.7751 31.8883C28.7557 32.5211 31.1973 30.3608 31.8848 27.8373L31.9434 27.6224C32.1543 26.8528 31.7598 26.0481 31.0254 25.7434L27.2244 24.1613C26.5798 23.8917 25.8337 24.0793 25.3883 24.6223L23.8805 26.4661C21.1342 25.1028 18.9231 22.8214 17.6535 20.0204L19.3802 18.6141C19.9232 18.1727 20.1068 17.4266 19.8412 16.7781L18.2551 12.9771Z" fill="white"/>
</svg>
