<svg width="20" height="20" viewBox="0 0 20 20" fill="none" xmlns="http://www.w3.org/2000/svg">
<path d="M10 1.875C12.1549 1.875 14.2215 2.73102 15.7452 4.25476C17.269 5.77849 18.125 7.84512 18.125 10C18.125 12.1549 17.269 14.2215 15.7452 15.7452C14.2215 17.269 12.1549 18.125 10 18.125C7.84512 18.125 5.77849 17.269 4.25476 15.7452C2.73102 14.2215 1.875 12.1549 1.875 10C1.875 7.84512 2.73102 5.77849 4.25476 4.25476C5.77849 2.73102 7.84512 1.875 10 1.875ZM10 20C12.6522 20 15.1957 18.9464 17.0711 17.0711C18.9464 15.1957 20 12.6522 20 10C20 7.34784 18.9464 4.8043 17.0711 2.92893C15.1957 1.05357 12.6522 0 10 0C7.34784 0 4.8043 1.05357 2.92893 2.92893C1.05357 4.8043 0 7.34784 0 10C0 12.6522 1.05357 15.1957 2.92893 17.0711C4.8043 18.9464 7.34784 20 10 20ZM13.2969 8.30859C13.5703 7.87109 13.4375 7.29297 13 7.01562C12.5625 6.73828 11.9844 6.875 11.707 7.3125L9.30859 11.1523L8.25391 9.74609C7.94141 9.33203 7.35547 9.24609 6.94141 9.55859C6.52734 9.87109 6.44141 10.457 6.75391 10.8711L8.62891 13.3711C8.8125 13.6172 9.10938 13.7578 9.41797 13.7461C9.72656 13.7344 10.0078 13.5703 10.1719 13.3047L13.2969 8.30469V8.30859Z" fill="#DB4200"/>
</svg>
