<svg width="20" height="21" viewBox="0 0 20 21" fill="none" xmlns="http://www.w3.org/2000/svg">
<path d="M2.22222 2.05078C0.996528 2.05078 0 3.04731 0 4.273V15.3841C0 16.6098 0.996528 17.6063 2.22222 17.6063H17.7778C19.0035 17.6063 20 16.6098 20 15.3841V4.273C20 3.04731 19.0035 2.05078 17.7778 2.05078H2.22222ZM5 10.9397H7.22222C8.75694 10.9397 10 12.1827 10 13.7174C10 14.023 9.75 14.273 9.44444 14.273H2.77778C2.47222 14.273 2.22222 14.023 2.22222 13.7174C2.22222 12.1827 3.46528 10.9397 5 10.9397ZM4.16667 7.60634C4.16667 7.35099 4.21696 7.09814 4.31468 6.86223C4.4124 6.62632 4.55562 6.41197 4.73618 6.23141C4.91674 6.05085 5.13109 5.90762 5.367 5.8099C5.60292 5.71219 5.85576 5.66189 6.11111 5.66189C6.36646 5.66189 6.61931 5.71219 6.85522 5.8099C7.09113 5.90762 7.30548 6.05085 7.48604 6.23141C7.6666 6.41197 7.80983 6.62632 7.90754 6.86223C8.00526 7.09814 8.05556 7.35099 8.05556 7.60634C8.05556 7.86168 8.00526 8.11453 7.90754 8.35044C7.80983 8.58635 7.6666 8.80071 7.48604 8.98127C7.30548 9.16182 7.09113 9.30505 6.85522 9.40277C6.61931 9.50049 6.36646 9.55078 6.11111 9.55078C5.85576 9.55078 5.60292 9.50049 5.367 9.40277C5.13109 9.30505 4.91674 9.16182 4.73618 8.98127C4.55562 8.80071 4.4124 8.58635 4.31468 8.35044C4.21696 8.11453 4.16667 7.86168 4.16667 7.60634ZM12.5 5.93967H16.3889C16.8507 5.93967 17.2222 6.3112 17.2222 6.773C17.2222 7.23481 16.8507 7.60634 16.3889 7.60634H12.5C12.0382 7.60634 11.6667 7.23481 11.6667 6.773C11.6667 6.3112 12.0382 5.93967 12.5 5.93967ZM12.5 9.273H16.3889C16.8507 9.273 17.2222 9.64453 17.2222 10.1063C17.2222 10.5681 16.8507 10.9397 16.3889 10.9397H12.5C12.0382 10.9397 11.6667 10.5681 11.6667 10.1063C11.6667 9.64453 12.0382 9.273 12.5 9.273Z" fill="white"/>
</svg>
