<svg width="20" height="16" viewBox="0 0 20 16" fill="none" xmlns="http://www.w3.org/2000/svg">
<path d="M2.22222 0.0509033C0.996528 0.0509033 0 1.04743 0 2.27313V13.3842C0 14.6099 0.996528 15.6065 2.22222 15.6065H17.7778C19.0035 15.6065 20 14.6099 20 13.3842V2.27313C20 1.04743 19.0035 0.0509033 17.7778 0.0509033H2.22222ZM5 8.93979H7.22222C8.75694 8.93979 10 10.1828 10 11.7176C10 12.0231 9.75 12.2731 9.44444 12.2731H2.77778C2.47222 12.2731 2.22222 12.0231 2.22222 11.7176C2.22222 10.1828 3.46528 8.93979 5 8.93979ZM4.16667 5.60646C4.16667 5.35111 4.21696 5.09826 4.31468 4.86235C4.4124 4.62644 4.55562 4.41209 4.73618 4.23153C4.91674 4.05097 5.13109 3.90774 5.367 3.81003C5.60292 3.71231 5.85576 3.66201 6.11111 3.66201C6.36646 3.66201 6.61931 3.71231 6.85522 3.81003C7.09113 3.90774 7.30548 4.05097 7.48604 4.23153C7.6666 4.41209 7.80983 4.62644 7.90754 4.86235C8.00526 5.09826 8.05556 5.35111 8.05556 5.60646C8.05556 5.86181 8.00526 6.11465 7.90754 6.35056C7.80983 6.58648 7.6666 6.80083 7.48604 6.98139C7.30548 7.16195 7.09113 7.30517 6.85522 7.40289C6.61931 7.50061 6.36646 7.5509 6.11111 7.5509C5.85576 7.5509 5.60292 7.50061 5.367 7.40289C5.13109 7.30517 4.91674 7.16195 4.73618 6.98139C4.55562 6.80083 4.4124 6.58648 4.31468 6.35056C4.21696 6.11465 4.16667 5.86181 4.16667 5.60646ZM12.5 3.93979H16.3889C16.8507 3.93979 17.2222 4.31132 17.2222 4.77313C17.2222 5.23493 16.8507 5.60646 16.3889 5.60646H12.5C12.0382 5.60646 11.6667 5.23493 11.6667 4.77313C11.6667 4.31132 12.0382 3.93979 12.5 3.93979ZM12.5 7.27313H16.3889C16.8507 7.27313 17.2222 7.64465 17.2222 8.10646C17.2222 8.56826 16.8507 8.93979 16.3889 8.93979H12.5C12.0382 8.93979 11.6667 8.56826 11.6667 8.10646C11.6667 7.64465 12.0382 7.27313 12.5 7.27313Z" fill="#6D7074"/>
</svg>
