<svg width="20" height="21" viewBox="0 0 20 21" fill="none" xmlns="http://www.w3.org/2000/svg">
<path d="M18.4219 0.89856C17.5664 0.0430908 16.1836 0.0430908 15.3281 0.89856L14.375 1.85168L18.1992 5.6759L19.1523 4.72278C20.0078 3.86731 20.0078 2.4845 19.1523 1.62903L18.4219 0.89856ZM6.73438 9.49231C6.49609 9.73059 6.3125 10.0236 6.20703 10.3478L5.05078 13.8165C4.9375 14.1525 5.02734 14.5236 5.27734 14.7775C5.52734 15.0314 5.89844 15.1173 6.23828 15.004L9.70703 13.8478C10.0273 13.7423 10.3203 13.5587 10.5625 13.3204L16.875 7.00012L13.0508 3.1759L6.73438 9.49231ZM3.75 2.5509C1.67969 2.5509 0 4.23059 0 6.3009V16.3009C0 18.3712 1.67969 20.0509 3.75 20.0509H13.75C15.8203 20.0509 17.5 18.3712 17.5 16.3009V12.5509C17.5 11.8595 16.9414 11.3009 16.25 11.3009C15.5586 11.3009 15 11.8595 15 12.5509V16.3009C15 16.9923 14.4414 17.5509 13.75 17.5509H3.75C3.05859 17.5509 2.5 16.9923 2.5 16.3009V6.3009C2.5 5.6095 3.05859 5.0509 3.75 5.0509H7.5C8.19141 5.0509 8.75 4.49231 8.75 3.8009C8.75 3.1095 8.19141 2.5509 7.5 2.5509H3.75Z" fill="#6D7074"/>
</svg>
