<svg width="20" height="21" viewBox="0 0 20 21" fill="none" xmlns="http://www.w3.org/2000/svg">
<g clip-path="url(#clip0_281_1045)">
<path d="M18.4219 0.898438C17.5664 0.0429687 16.1836 0.0429687 15.3281 0.898438L14.375 1.85156L18.1992 5.67578L19.1523 4.72266C20.0078 3.86719 20.0078 2.48438 19.1523 1.62891L18.4219 0.898438ZM6.73438 9.49219C6.49609 9.73047 6.3125 10.0234 6.20703 10.3477L5.05078 13.8164C4.9375 14.1523 5.02734 14.5234 5.27734 14.7773C5.52734 15.0312 5.89844 15.1172 6.23828 15.0039L9.70703 13.8477C10.0273 13.7422 10.3203 13.5586 10.5625 13.3203L16.875 7L13.0508 3.17578L6.73438 9.49219ZM3.75 2.55078C1.67969 2.55078 0 4.23047 0 6.30078V16.3008C0 18.3711 1.67969 20.0508 3.75 20.0508H13.75C15.8203 20.0508 17.5 18.3711 17.5 16.3008V12.5508C17.5 11.8594 16.9414 11.3008 16.25 11.3008C15.5586 11.3008 15 11.8594 15 12.5508V16.3008C15 16.9922 14.4414 17.5508 13.75 17.5508H3.75C3.05859 17.5508 2.5 16.9922 2.5 16.3008V6.30078C2.5 5.60938 3.05859 5.05078 3.75 5.05078H7.5C8.19141 5.05078 8.75 4.49219 8.75 3.80078C8.75 3.10938 8.19141 2.55078 7.5 2.55078H3.75Z" fill="white"/>
</g>
<defs>
<clipPath id="clip0_281_1045">
<rect width="20" height="20" fill="white" transform="translate(0 0.0507812)"/>
</clipPath>
</defs>
</svg>
