<svg width="20" height="21" viewBox="0 0 20 21" fill="none" xmlns="http://www.w3.org/2000/svg">
<path d="M13.4282 9.07276C13.8095 8.96964 14.2095 9.15089 14.3814 9.50401L14.9626 10.679C15.2845 10.7228 15.6001 10.8103 15.897 10.9321L16.9907 10.204C17.3189 9.98526 17.7532 10.029 18.0314 10.3071L18.6314 10.9071C18.9095 11.1853 18.9532 11.6228 18.7345 11.9478L18.0064 13.0384C18.0657 13.1853 18.1189 13.3384 18.1626 13.4978C18.2064 13.6571 18.2345 13.8134 18.2564 13.9728L19.4345 14.554C19.7876 14.729 19.9689 15.129 19.8657 15.5071L19.647 16.3259C19.5439 16.704 19.1907 16.9603 18.797 16.9353L17.4845 16.8509C17.2876 17.104 17.0595 17.3384 16.8001 17.5384L16.8845 18.8478C16.9095 19.2415 16.6532 19.5978 16.2751 19.6978L15.4564 19.9165C15.0751 20.0196 14.6782 19.8384 14.5032 19.4853L13.922 18.3103C13.6001 18.2665 13.2845 18.179 12.9876 18.0571L11.8939 18.7853C11.5657 19.004 11.1314 18.9603 10.8532 18.6821L10.2532 18.0821C9.97511 17.804 9.93136 17.3696 10.1501 17.0415L10.8782 15.9478C10.8189 15.8009 10.7657 15.6478 10.722 15.4884C10.6782 15.329 10.6501 15.1696 10.6282 15.0134L9.45011 14.4321C9.09698 14.2571 8.91886 13.8571 9.01886 13.479L9.23761 12.6603C9.34073 12.2821 9.69386 12.0259 10.0876 12.0509L11.397 12.1353C11.5939 11.8821 11.822 11.6478 12.0814 11.4478L11.997 10.1415C11.972 9.74776 12.2282 9.39151 12.6064 9.29151L13.4251 9.07276H13.4282ZM14.4439 13.1196C14.2633 13.1198 14.0845 13.1556 13.9178 13.2249C13.751 13.2942 13.5996 13.3956 13.472 13.5235C13.2145 13.7816 13.07 14.1315 13.0704 14.4962C13.0708 14.8609 13.2161 15.2104 13.4743 15.468C13.7324 15.7256 14.0823 15.8701 14.447 15.8696C14.8117 15.8692 15.1612 15.724 15.4188 15.4658C15.6764 15.2076 15.8208 14.8577 15.8204 14.4931C15.82 14.1284 15.6747 13.7788 15.4166 13.5213C15.1584 13.2637 14.8085 13.1192 14.4439 13.1196ZM7.45948 1.07276L8.27823 1.29151C8.65636 1.39464 8.91261 1.75089 8.88761 2.14151L8.80323 3.44776C9.06261 3.64776 9.29073 3.87901 9.48761 4.13526L10.8001 4.05089C11.1907 4.02589 11.547 4.28214 11.6501 4.66026L11.8689 5.47901C11.9689 5.85714 11.7907 6.25714 11.4376 6.43214L10.2595 7.01339C10.2376 7.17276 10.2064 7.33214 10.1657 7.48839C10.1251 7.64464 10.0689 7.80089 10.0095 7.94776L10.7376 9.04151C10.9564 9.36964 10.9126 9.80401 10.6345 10.0821L10.0345 10.6821C9.75636 10.9603 9.32198 11.004 8.99386 10.7853L7.90011 10.0571C7.60323 10.179 7.28761 10.2665 6.96573 10.3103L6.38448 11.4853C6.20948 11.8384 5.80948 12.0165 5.43136 11.9165L4.61261 11.6978C4.23136 11.5946 3.97823 11.2384 4.00323 10.8478L4.08761 9.53839C3.82823 9.33839 3.60011 9.10714 3.40323 8.85089L2.09073 8.93526C1.70011 8.96026 1.34386 8.70401 1.24073 8.32589L1.02198 7.50714C0.921982 7.12901 1.10011 6.72901 1.45323 6.55401L2.63136 5.97276C2.65323 5.81339 2.68448 5.65714 2.72511 5.49776C2.76886 5.33839 2.81886 5.18526 2.88136 5.03839L2.15323 3.94776C1.93448 3.61964 1.97823 3.18526 2.25636 2.90714L2.85636 2.30714C3.13448 2.02901 3.56886 1.98526 3.89698 2.20401L4.99073 2.93214C5.28761 2.81026 5.60323 2.72276 5.92511 2.67901L6.50636 1.50401C6.68136 1.15089 7.07823 0.972764 7.45948 1.07276ZM6.44386 5.11964C6.07918 5.11964 5.72945 5.2645 5.47159 5.52237C5.21372 5.78023 5.06886 6.12997 5.06886 6.49464C5.06886 6.85931 5.21372 7.20905 5.47159 7.46691C5.72945 7.72477 6.07918 7.86964 6.44386 7.86964C6.80853 7.86964 7.15827 7.72477 7.41613 7.46691C7.67399 7.20905 7.81886 6.85931 7.81886 6.49464C7.81886 6.12997 7.67399 5.78023 7.41613 5.52237C7.15827 5.2645 6.80853 5.11964 6.44386 5.11964Z" fill="white"/>
</svg>
