<svg width="19" height="19" viewBox="0 0 19 19" fill="none" xmlns="http://www.w3.org/2000/svg">
<path d="M12.4282 8.07289C12.8095 7.96976 13.2095 8.15101 13.3814 8.50414L13.9626 9.67914C14.2845 9.72289 14.6001 9.81039 14.897 9.93226L15.9907 9.20414C16.3189 8.98539 16.7532 9.02914 17.0314 9.30726L17.6314 9.90726C17.9095 10.1854 17.9532 10.6229 17.7345 10.9479L17.0064 12.0385C17.0657 12.1854 17.1189 12.3385 17.1626 12.4979C17.2064 12.6573 17.2345 12.8135 17.2564 12.9729L18.4345 13.5541C18.7876 13.7291 18.9689 14.1291 18.8657 14.5073L18.647 15.326C18.5439 15.7041 18.1907 15.9604 17.797 15.9354L16.4845 15.851C16.2876 16.1041 16.0595 16.3385 15.8001 16.5385L15.8845 17.8479C15.9095 18.2416 15.6532 18.5979 15.2751 18.6979L14.4564 18.9166C14.0751 19.0198 13.6782 18.8385 13.5032 18.4854L12.922 17.3104C12.6001 17.2666 12.2845 17.1791 11.9876 17.0573L10.8939 17.7854C10.5657 18.0041 10.1314 17.9604 9.85323 17.6823L9.25323 17.0823C8.97511 16.8041 8.93136 16.3698 9.15011 16.0416L9.87823 14.9479C9.81886 14.801 9.76573 14.6479 9.72198 14.4885C9.67823 14.3291 9.65011 14.1698 9.62823 14.0135L8.45011 13.4323C8.09698 13.2573 7.91886 12.8573 8.01886 12.4791L8.23761 11.6604C8.34073 11.2823 8.69386 11.026 9.08761 11.051L10.397 11.1354C10.5939 10.8823 10.822 10.6479 11.0814 10.4479L10.997 9.14164C10.972 8.74789 11.2282 8.39164 11.6064 8.29164L12.4251 8.07289H12.4282ZM13.4439 12.1198C13.2633 12.12 13.0845 12.1557 12.9178 12.225C12.751 12.2943 12.5996 12.3958 12.472 12.5236C12.2145 12.7817 12.07 13.1316 12.0704 13.4963C12.0708 13.861 12.2161 14.2106 12.4743 14.4681C12.7324 14.7257 13.0823 14.8702 13.447 14.8698C13.8117 14.8693 14.1612 14.7241 14.4188 14.4659C14.6764 14.2078 14.8208 13.8579 14.8204 13.4932C14.82 13.1285 14.6747 12.779 14.4166 12.5214C14.1584 12.2638 13.8085 12.1193 13.4439 12.1198ZM6.45948 0.0728857L7.27823 0.291636C7.65636 0.394761 7.91261 0.751011 7.88761 1.14164L7.80323 2.44789C8.06261 2.64789 8.29073 2.87914 8.48761 3.13539L9.80011 3.05101C10.1907 3.02601 10.547 3.28226 10.6501 3.66039L10.8689 4.47914C10.9689 4.85726 10.7907 5.25726 10.4376 5.43226L9.25948 6.01351C9.23761 6.17289 9.20636 6.33226 9.16573 6.48851C9.12511 6.64476 9.06886 6.80101 9.00948 6.94789L9.73761 8.04164C9.95636 8.36976 9.91261 8.80414 9.63448 9.08226L9.03448 9.68226C8.75636 9.96039 8.32198 10.0041 7.99386 9.78539L6.90011 9.05726C6.60323 9.17914 6.28761 9.26664 5.96573 9.31039L5.38448 10.4854C5.20948 10.8385 4.80948 11.0166 4.43136 10.9166L3.61261 10.6979C3.23136 10.5948 2.97823 10.2385 3.00323 9.84789L3.08761 8.53851C2.82823 8.33851 2.60011 8.10726 2.40323 7.85101L1.09073 7.93539C0.700107 7.96039 0.343857 7.70414 0.240732 7.32601L0.0219824 6.50726C-0.0780177 6.12914 0.100107 5.72914 0.453232 5.55414L1.63136 4.97289C1.65323 4.81351 1.68448 4.65726 1.72511 4.49789C1.76886 4.33851 1.81886 4.18539 1.88136 4.03851L1.15323 2.94789C0.934482 2.61976 0.978232 2.18539 1.25636 1.90726L1.85636 1.30726C2.13448 1.02914 2.56886 0.985386 2.89698 1.20414L3.99073 1.93226C4.28761 1.81039 4.60323 1.72289 4.92511 1.67914L5.50636 0.504136C5.68136 0.151011 6.07823 -0.0271143 6.45948 0.0728857ZM5.44386 4.11976C5.07918 4.11976 4.72945 4.26463 4.47159 4.52249C4.21372 4.78035 4.06886 5.13009 4.06886 5.49476C4.06886 5.85943 4.21372 6.20917 4.47159 6.46703C4.72945 6.7249 5.07918 6.86976 5.44386 6.86976C5.80853 6.86976 6.15827 6.7249 6.41613 6.46703C6.67399 6.20917 6.81886 5.85943 6.81886 5.49476C6.81886 5.13009 6.67399 4.78035 6.41613 4.52249C6.15827 4.26463 5.80853 4.11976 5.44386 4.11976Z" fill="#6D7074"/>
</svg>
