<svg width="20" height="21" viewBox="0 0 20 21" fill="none" xmlns="http://www.w3.org/2000/svg">
<g clip-path="url(#clip0_281_1055)">
<path d="M9.44455 2.89464L2.79178 7.82172L8.28136 11.8912C8.46539 12.0266 8.67025 12.1308 8.889 12.1933V17.8287C8.889 18.0196 8.90636 18.2037 8.93414 18.3842H2.77789C1.55219 18.3842 0.555664 17.3877 0.555664 16.162V7.83214C0.555664 7.12728 0.888997 6.46408 1.45497 6.04742L8.28136 0.98839C8.61816 0.73839 9.02441 0.606445 9.44455 0.606445C9.86469 0.606445 10.2709 0.741862 10.6077 0.98839L17.4341 6.04742C17.6841 6.23145 17.889 6.46408 18.0383 6.72797C17.9515 6.72103 17.8647 6.71756 17.7779 6.71756H14.6043L9.44455 2.89464ZM10.5557 10.0509C10.5557 9.13075 11.3022 8.38422 12.2223 8.38422H17.7779C18.698 8.38422 19.4446 9.13075 19.4446 10.0509V17.8287C19.4446 18.7488 18.698 19.4953 17.7779 19.4953H12.2223C11.3022 19.4953 10.5557 18.7488 10.5557 17.8287V10.0509ZM13.3334 10.6064C12.8716 10.6064 12.5001 10.978 12.5001 11.4398C12.5001 11.9016 12.8716 12.2731 13.3334 12.2731H16.6668C17.1286 12.2731 17.5001 11.9016 17.5001 11.4398C17.5001 10.978 17.1286 10.6064 16.6668 10.6064H13.3334ZM13.3334 13.9398C12.8716 13.9398 12.5001 14.3113 12.5001 14.7731C12.5001 15.2349 12.8716 15.6064 13.3334 15.6064H15.2779C15.7397 15.6064 16.1112 15.2349 16.1112 14.7731C16.1112 14.3113 15.7397 13.9398 15.2779 13.9398H13.3334Z" fill="white"/>
</g>
<defs>
<clipPath id="clip0_281_1055">
<rect width="20" height="20" fill="white" transform="translate(0 0.0507812)"/>
</clipPath>
</defs>
</svg>
