<svg width="20" height="21" viewBox="0 0 20 21" fill="none" xmlns="http://www.w3.org/2000/svg">
<path d="M10.4444 1.0509C11.059 1.0509 11.5556 1.54743 11.5556 2.16201V2.79743C14.9618 3.28354 17.6563 5.97799 18.1424 9.38424H18.7778C19.3924 9.38424 19.8889 9.88076 19.8889 10.4953C19.8889 11.1099 19.3924 11.6065 18.7778 11.6065H18.1424C17.6563 15.0127 14.9618 17.7072 11.5556 18.1933V18.8287C11.5556 19.4433 11.059 19.9398 10.4444 19.9398C9.82986 19.9398 9.33333 19.4433 9.33333 18.8287V18.1933C5.92708 17.7072 3.23264 15.0127 2.74653 11.6065H2.11111C1.49653 11.6065 1 11.1099 1 10.4953C1 9.88076 1.49653 9.38424 2.11111 9.38424H2.74653C3.23264 5.97799 5.92708 3.28354 9.33333 2.79743V2.16201C9.33333 1.54743 9.82986 1.0509 10.4444 1.0509ZM4.88889 10.4953C4.88889 11.9688 5.47421 13.3819 6.51607 14.4237C7.55794 15.4656 8.97102 16.0509 10.4444 16.0509C11.9179 16.0509 13.3309 15.4656 14.3728 14.4237C15.4147 13.3819 16 11.9688 16 10.4953C16 9.02192 15.4147 7.60885 14.3728 6.56698C13.3309 5.52511 11.9179 4.93979 10.4444 4.93979C8.97102 4.93979 7.55794 5.52511 6.51607 6.56698C5.47421 7.60885 4.88889 9.02192 4.88889 10.4953ZM10.4444 7.16201C11.3285 7.16201 12.1763 7.5132 12.8015 8.13833C13.4266 8.76345 13.7778 9.61129 13.7778 10.4953C13.7778 11.3794 13.4266 12.2273 12.8015 12.8524C12.1763 13.4775 11.3285 13.8287 10.4444 13.8287C9.56039 13.8287 8.71254 13.4775 8.08742 12.8524C7.4623 12.2273 7.11111 11.3794 7.11111 10.4953C7.11111 9.61129 7.4623 8.76345 8.08742 8.13833C8.71254 7.5132 9.56039 7.16201 10.4444 7.16201Z" fill="white"/>
</svg>
