<svg width="44" height="44" viewBox="0 0 44 44" fill="none" xmlns="http://www.w3.org/2000/svg">
<path d="M0 22C0 9.84974 9.84974 0 22 0C34.1503 0 44 9.84974 44 22C44 34.1503 34.1503 44 22 44C9.84974 44 0 34.1503 0 22Z" fill="#094D9A"/>
<path d="M13.875 14.5C12.8398 14.5 12 15.3398 12 16.375C12 16.9648 12.2773 17.5195 12.75 17.875L20.875 23.9688C21.543 24.4688 22.457 24.4688 23.125 23.9688L31.25 17.875C31.7227 17.5195 32 16.9648 32 16.375C32 15.3398 31.1602 14.5 30.125 14.5H13.875ZM12 19.6562V27C12 28.3789 13.1211 29.5 14.5 29.5H29.5C30.8789 29.5 32 28.3789 32 27V19.6562L24.25 25.4688C22.918 26.4688 21.082 26.4688 19.75 25.4688L12 19.6562Z" fill="white"/>
</svg>
