<svg width="20" height="21" viewBox="0 0 20 21" fill="none" xmlns="http://www.w3.org/2000/svg">
<g clip-path="url(#clip0_281_1040)">
<path d="M8.125 1.92578C8.125 1.4285 8.32254 0.951587 8.67417 0.599956C9.02581 0.248325 9.50272 0.0507813 10 0.0507812C10.4973 0.0507813 10.9742 0.248325 11.3258 0.599956C11.6775 0.951587 11.875 1.4285 11.875 1.92578C11.875 2.42306 11.6775 2.89998 11.3258 3.25161C10.9742 3.60324 10.4973 3.80078 10 3.80078C9.50272 3.80078 9.02581 3.60324 8.67417 3.25161C8.32254 2.89998 8.125 2.42306 8.125 1.92578ZM6.25 7.55078C6.25 6.85938 6.80859 6.30078 7.5 6.30078H10C10.6914 6.30078 11.25 6.85938 11.25 7.55078V17.5508H12.5C13.1914 17.5508 13.75 18.1094 13.75 18.8008C13.75 19.4922 13.1914 20.0508 12.5 20.0508H7.5C6.80859 20.0508 6.25 19.4922 6.25 18.8008C6.25 18.1094 6.80859 17.5508 7.5 17.5508H8.75V8.80078H7.5C6.80859 8.80078 6.25 8.24219 6.25 7.55078Z" fill="white"/>
</g>
<defs>
<clipPath id="clip0_281_1040">
<rect width="20" height="20" fill="white" transform="translate(0 0.0507812)"/>
</clipPath>
</defs>
</svg>
