<svg width="8" height="21" viewBox="0 0 8 21" fill="none" xmlns="http://www.w3.org/2000/svg">
<path d="M2.125 1.9259C2.125 1.42862 2.32254 0.951709 2.67417 0.600078C3.02581 0.248447 3.50272 0.0509033 4 0.0509033C4.49728 0.0509033 4.97419 0.248447 5.32583 0.600078C5.67746 0.951709 5.875 1.42862 5.875 1.9259C5.875 2.42318 5.67746 2.9001 5.32583 3.25173C4.97419 3.60336 4.49728 3.8009 4 3.8009C3.50272 3.8009 3.02581 3.60336 2.67417 3.25173C2.32254 2.9001 2.125 2.42318 2.125 1.9259ZM0.25 7.5509C0.25 6.8595 0.808594 6.3009 1.5 6.3009H4C4.69141 6.3009 5.25 6.8595 5.25 7.5509V17.5509H6.5C7.19141 17.5509 7.75 18.1095 7.75 18.8009C7.75 19.4923 7.19141 20.0509 6.5 20.0509H1.5C0.808594 20.0509 0.25 19.4923 0.25 18.8009C0.25 18.1095 0.808594 17.5509 1.5 17.5509H2.75V8.8009H1.5C0.808594 8.8009 0.25 8.24231 0.25 7.5509Z" fill="#6D7074"/>
</svg>
